<svg width="423" height="276" viewBox="0 0 423 276" fill="none" xmlns="http://www.w3.org/2000/svg">
<mask id="mask0_462_372" style="mask-type:alpha" maskUnits="userSpaceOnUse" x="0" y="0" width="423" height="276">
<rect width="423" height="276" rx="18" fill="#D9D9D9"/>
</mask>
<g mask="url(#mask0_462_372)">
<rect width="485.287" height="46.7194" transform="matrix(0.994545 0.104308 -0.113117 0.993582 -37.4297 15)" fill="#0F1A34"/>
<path d="M4.3008 34.1866L4.07368 36.1692L-1.23154 35.6093L-1.59132 38.7498L2.47419 39.1789L2.25109 41.1264L-1.81442 40.6973L-2.40735 45.8731L-4.95968 45.6037L-3.55676 33.3573L4.3008 34.1866ZM9.11226 38.7785C9.49937 38.2985 9.97099 37.9398 10.5271 37.7026C11.0954 37.4666 11.7198 37.3845 12.4005 37.4563L12.105 40.0354L11.4305 39.9643C10.6283 39.8796 9.99982 39.9968 9.54505 40.3158C9.10243 40.636 8.82953 41.2465 8.72635 42.1471L8.17161 46.9895L5.61928 46.7202L6.73277 37.0003L9.28511 37.2696L9.11226 38.7785ZM18.3683 48.2254C17.396 48.1228 16.5443 47.8258 15.8134 47.3343C15.0838 46.8311 14.5376 46.1757 14.175 45.3679C13.8246 44.5615 13.7063 43.6612 13.8202 42.6669C13.9341 41.6727 14.2595 40.8192 14.7963 40.1064C15.3452 39.3948 16.0381 38.8761 16.875 38.5501C17.7133 38.2124 18.6186 38.0948 19.5909 38.1974C20.5632 38.3 21.4203 38.6036 22.162 39.108C22.9051 39.6008 23.458 40.251 23.8206 41.0588C24.1954 41.8678 24.3258 42.7694 24.2119 43.7636C24.098 44.7578 23.7605 45.6101 23.1994 46.3203C22.6504 47.0319 21.9508 47.5559 21.1004 47.8923C20.2635 48.2183 19.3528 48.3293 18.3683 48.2254ZM18.6135 46.085C19.0754 46.1337 19.5189 46.074 19.9441 45.9058C20.3828 45.7271 20.7485 45.4343 21.0411 45.0271C21.3338 44.62 21.5156 44.1065 21.5866 43.4866C21.6925 42.5625 21.5183 41.828 21.0641 41.2828C20.6234 40.7273 20.0385 40.411 19.3092 40.3341C18.58 40.2571 17.9374 40.4438 17.3815 40.8942C16.839 41.3341 16.5149 42.0161 16.409 42.9401C16.3032 43.8642 16.4584 44.6027 16.8748 45.1557C17.3047 45.6982 17.8843 46.008 18.6135 46.085ZM33.1654 39.6478C34.3687 39.7748 35.2988 40.2458 35.9558 41.061C36.6141 41.8644 36.8682 42.9211 36.7181 44.2311L36.0649 49.9332L33.5126 49.6639L34.1276 44.2951C34.216 43.5232 34.0832 42.9113 33.729 42.4596C33.3761 41.9962 32.8533 41.7279 32.1605 41.6548C31.4556 41.5804 30.8724 41.732 30.4109 42.1094C29.9629 42.4765 29.6947 43.046 29.6063 43.818L28.9913 49.1867L26.4389 48.9174L27.5524 39.1975L30.1048 39.4668L29.9661 40.6774C30.3546 40.2923 30.8236 40.0103 31.373 39.8315C31.9359 39.6423 32.5334 39.5811 33.1654 39.6478ZM43.2576 42.897L42.7189 47.599C42.6814 47.9265 42.7329 48.1747 42.8735 48.3434C43.0276 48.5017 43.2991 48.6014 43.688 48.6424L44.873 48.7675L44.6359 50.8378L43.0315 50.6685C40.8803 50.4414 39.9199 49.322 40.1504 47.3102L40.687 42.6257L39.4838 42.4987L39.7149 40.481L40.9182 40.608L41.1935 38.2044L43.7641 38.4757L43.4887 40.8793L45.7494 41.1179L45.5182 43.1356L43.2576 42.897ZM57.353 47.0481C57.3128 47.399 57.2523 47.7123 57.1716 47.9878L49.788 47.2086C49.7684 47.9168 49.9606 48.4935 50.3648 48.9387C50.7689 49.3838 51.2992 49.641 51.9555 49.7103C52.9035 49.8103 53.6229 49.4897 54.1138 48.7483L56.8667 49.0388C56.4678 49.9438 55.8202 50.6568 54.9241 51.1778C54.0293 51.6871 52.9803 51.8782 51.777 51.7512C50.8047 51.6486 49.9531 51.3516 49.2221 50.8601C48.5046 50.3582 47.9707 49.7041 47.6202 48.8976C47.2819 48.0924 47.1697 47.1927 47.2836 46.1985C47.3989 45.1926 47.7127 44.332 48.2252 43.6166C48.7377 42.9012 49.4002 42.3792 50.2128 42.0506C51.0254 41.7221 51.9301 41.6104 52.9267 41.7155C53.8869 41.8169 54.7209 42.1061 55.4289 42.5834C56.1491 43.0619 56.6735 43.6913 57.0024 44.4718C57.3447 45.2419 57.4616 46.1007 57.353 47.0481ZM54.7899 46.0673C54.8501 45.4344 54.6708 44.9065 54.2518 44.4834C53.8341 44.0487 53.2911 43.7961 52.6226 43.7255C51.9906 43.6588 51.4344 43.7895 50.954 44.1176C50.4871 44.4353 50.1675 44.9166 49.9952 45.5613L54.7899 46.0673ZM66.2732 43.1418C67.4764 43.2688 68.4065 43.7399 69.0635 44.555C69.7218 45.3584 69.976 46.4152 69.8259 47.7252L69.1727 53.4273L66.6203 53.1579L67.2354 47.7892C67.3238 47.0172 67.1909 46.4054 66.8367 45.9537C66.4839 45.4902 65.9611 45.222 65.2683 45.1489C64.5634 45.0745 63.9802 45.226 63.5187 45.6035C63.0707 45.9705 62.8025 46.54 62.7141 47.312L62.099 52.6808L59.5467 52.4114L60.6602 42.6915L63.2125 42.9609L63.0738 44.1715C63.4624 43.7863 63.9314 43.5043 64.4808 43.3256C65.0437 43.1364 65.6412 43.0751 66.2732 43.1418ZM72.4158 48.8153C72.5284 47.8328 72.8287 46.9826 73.3169 46.2646C73.8172 45.548 74.4433 45.0221 75.1951 44.6872C75.947 44.3522 76.7544 44.2302 77.6173 44.3213C78.2736 44.3905 78.8835 44.597 79.4468 44.9405C80.0116 45.2724 80.444 45.685 80.7443 46.1784L81.2729 41.5641L83.8617 41.8373L82.3743 54.8205L79.7855 54.5473L79.9503 53.1086C79.5794 53.5549 79.0916 53.894 78.4868 54.1262C77.8821 54.3583 77.2029 54.4346 76.4494 54.3551C75.5986 54.2653 74.8449 53.9726 74.1882 53.4772C73.5315 52.9817 73.0401 52.332 72.7139 51.5281C72.4013 50.7138 72.3019 49.8096 72.4158 48.8153ZM80.3605 49.6893C80.4288 49.0928 80.3656 48.5711 80.1707 48.1244C79.9772 47.666 79.6866 47.3038 79.2988 47.038C78.9124 46.7605 78.4822 46.5967 78.0082 46.5467C77.5342 46.4966 77.0839 46.5616 76.6573 46.7415C76.2308 46.9214 75.8651 47.2143 75.5603 47.6201C75.269 48.0155 75.0898 48.5056 75.0228 49.0905C74.9558 49.6753 75.0184 50.2028 75.2106 50.6729C75.4162 51.1326 75.7062 51.5006 76.0805 51.7769C76.4669 52.0544 76.8911 52.2176 77.3529 52.2663C77.8269 52.3163 78.2833 52.252 78.722 52.0734C79.162 51.8831 79.5277 51.5902 79.819 51.1948C80.1117 50.7877 80.2922 50.2858 80.3605 49.6893Z" fill="white"/>
<path d="M187.702 64.2537L191.896 64.6962L191.673 66.6437L184.927 65.9318L186.33 53.6855L188.882 53.9548L187.702 64.2537ZM194.111 61.9468C194.223 60.9643 194.524 60.1141 195.012 59.3961C195.512 58.6794 196.132 58.153 196.872 57.8167C197.624 57.4817 198.431 57.3598 199.294 57.4508C200.048 57.5304 200.687 57.7458 201.213 58.0972C201.75 58.4499 202.164 58.8665 202.453 59.3469L202.612 57.9608L205.183 58.2321L204.069 67.952L201.499 67.6807L201.662 66.2596C201.281 66.6811 200.782 67.0132 200.164 67.2557C199.559 67.4878 198.88 67.5641 198.126 67.4846C197.275 67.3948 196.522 67.1022 195.865 66.6067C195.22 66.1125 194.735 65.4635 194.409 64.6596C194.096 63.8453 193.997 62.941 194.111 61.9468ZM202.055 62.8208C202.124 62.2242 202.061 61.7026 201.866 61.2559C201.672 60.7975 201.382 60.4353 200.994 60.1695C200.607 59.8919 200.177 59.7281 199.703 59.6781C199.229 59.6281 198.779 59.693 198.352 59.8729C197.926 60.0529 197.56 60.3457 197.255 60.7516C196.964 61.147 196.785 61.6371 196.718 62.2219C196.651 62.8068 196.713 63.3343 196.906 63.8044C197.111 64.2641 197.401 64.6321 197.775 64.9083C198.162 65.1859 198.586 65.349 199.048 65.3978C199.522 65.4478 199.978 65.3835 200.417 65.2049C200.857 65.0145 201.223 64.7217 201.514 64.3262C201.807 63.9191 201.987 63.4173 202.055 62.8208ZM214.2 59.0417C215.403 59.1687 216.333 59.6398 216.99 60.4549C217.649 61.2583 217.903 62.315 217.753 63.6251L217.1 69.3272L214.547 69.0578L215.162 63.6891C215.251 62.9171 215.118 62.3052 214.764 61.8535C214.411 61.3901 213.888 61.1219 213.195 61.0487C212.49 60.9744 211.907 61.1259 211.446 61.5034C210.998 61.8704 210.729 62.4399 210.641 63.2119L210.026 68.5807L207.474 68.3113L208.587 58.5914L211.139 58.8608L211.001 60.0714C211.389 59.6862 211.858 59.4042 212.408 59.2254C212.971 59.0363 213.568 58.975 214.2 59.0417ZM220.343 64.7152C220.455 63.7327 220.756 62.8825 221.244 62.1645C221.744 61.4478 222.37 60.922 223.122 60.587C223.874 60.252 224.681 60.1301 225.544 60.2212C226.201 60.2904 226.81 60.4968 227.374 60.8404C227.939 61.1723 228.371 61.5849 228.671 62.0783L229.2 57.464L231.789 57.7372L230.301 70.7204L227.712 70.4472L227.877 69.0085C227.506 69.4547 227.018 69.7939 226.414 70.026C225.809 70.2582 225.13 70.3345 224.376 70.2549C223.526 70.1652 222.772 69.8725 222.115 69.377C221.458 68.8816 220.967 68.2319 220.641 67.428C220.328 66.6137 220.229 65.7094 220.343 64.7152ZM228.287 65.5892C228.356 64.9927 228.293 64.471 228.098 64.0243C227.904 63.5659 227.614 63.2037 227.226 62.9379C226.839 62.6603 226.409 62.4966 225.935 62.4465C225.461 62.3965 225.011 62.4614 224.584 62.6413C224.158 62.8213 223.792 63.1141 223.487 63.52C223.196 63.9154 223.017 64.4055 222.95 64.9904C222.883 65.5752 222.945 66.1027 223.138 66.5728C223.343 67.0325 223.633 67.4005 224.007 67.6767C224.394 67.9543 224.818 68.1174 225.28 68.1662C225.754 68.2162 226.21 68.1519 226.649 67.9733C227.089 67.783 227.455 67.4901 227.746 67.0947C228.039 66.6875 228.219 66.1857 228.287 65.5892ZM236.246 60.3384C235.796 60.291 235.435 60.1167 235.162 59.8156C234.903 59.5041 234.796 59.1437 234.843 58.7343C234.89 58.3249 235.075 58.0011 235.397 57.7629C235.733 57.5142 236.126 57.4136 236.576 57.4611C237.025 57.5085 237.38 57.688 237.64 57.9995C237.913 58.3006 238.026 58.6558 237.979 59.0652C237.932 59.4746 237.74 59.8036 237.404 60.0523C237.082 60.2905 236.696 60.3859 236.246 60.3384ZM237.371 61.6292L236.258 71.3491L233.706 71.0797L234.819 61.3598L237.371 61.6292ZM246.418 62.4418C247.621 62.5688 248.551 63.0399 249.208 63.855C249.866 64.6584 250.12 65.7151 249.97 67.0252L249.317 72.7273L246.765 72.4579L247.38 67.0892C247.468 66.3172 247.335 65.7053 246.981 65.2536C246.628 64.7902 246.106 64.522 245.413 64.4488C244.708 64.3745 244.125 64.526 243.663 64.9035C243.215 65.2705 242.947 65.84 242.859 66.612L242.244 71.9808L239.691 71.7114L240.805 61.9915L243.357 62.2609L243.218 63.4715C243.607 63.0863 244.076 62.8043 244.625 62.6255C245.188 62.4364 245.786 62.3751 246.418 62.4418ZM257.744 63.6193C258.497 63.6989 259.143 63.915 259.681 64.2677C260.22 64.6087 260.627 65.0246 260.903 65.5154L261.062 64.1293L263.632 64.4006L262.511 74.1907C262.408 75.0913 262.127 75.8727 261.67 76.5347C261.212 77.2084 260.582 77.7102 259.782 78.0401C258.98 78.3816 258.044 78.496 256.975 78.3831C255.541 78.2317 254.399 77.7857 253.549 77.0449C252.711 76.3054 252.295 75.3736 252.3 74.2496L254.835 74.517C254.917 74.9756 255.163 75.3567 255.571 75.6602C255.99 75.9766 256.515 76.1682 257.147 76.2349C257.889 76.3132 258.515 76.1603 259.026 75.7762C259.536 75.4039 259.841 74.785 259.94 73.9194L260.113 72.4105C259.733 72.8321 259.233 73.1641 258.615 73.4067C258.009 73.6505 257.335 73.7333 256.594 73.655C255.743 73.5653 254.989 73.2726 254.333 72.7771C253.676 72.2817 253.185 71.632 252.858 70.8281C252.546 70.0138 252.446 69.1095 252.56 68.1153C252.673 67.1328 252.973 66.2826 253.461 65.5646C253.962 64.8479 254.582 64.3215 255.321 63.9852C256.073 63.6502 256.881 63.5283 257.744 63.6193ZM260.505 68.9893C260.573 68.3928 260.51 67.8711 260.315 67.4244C260.122 66.966 259.831 66.6038 259.443 66.338C259.057 66.0604 258.627 65.8967 258.153 65.8466C257.679 65.7966 257.228 65.8615 256.802 66.0415C256.375 66.2214 256.01 66.5142 255.705 66.9201C255.414 67.3155 255.234 67.8056 255.167 68.3905C255.1 68.9753 255.163 69.5028 255.355 69.9729C255.561 70.4326 255.851 70.8006 256.225 71.0768C256.611 71.3544 257.036 71.5175 257.497 71.5663C257.971 71.6163 258.428 71.552 258.867 71.3734C259.307 71.1831 259.672 70.8902 259.964 70.4948C260.256 70.0876 260.437 69.5858 260.505 68.9893ZM281.427 67.5571C281.352 68.2121 281.118 68.8089 280.724 69.3474C280.342 69.8872 279.785 70.296 279.052 70.5737C278.331 70.8528 277.448 70.9372 276.403 70.8269L274.27 70.6018L273.731 75.3038L271.179 75.0345L272.582 62.7881L277.267 63.2826C278.252 63.3865 279.071 63.6387 279.727 64.0393C280.382 64.44 280.847 64.9448 281.122 65.5538C281.408 66.1642 281.51 66.8319 281.427 67.5571ZM276.521 68.8328C277.226 68.9072 277.766 68.8103 278.141 68.5421C278.517 68.2622 278.738 67.8415 278.802 67.2801C278.939 66.087 278.314 65.4174 276.929 65.2711L274.905 65.0576L274.497 68.6192L276.521 68.8328ZM283.087 71.3369C283.199 70.3544 283.499 69.5042 283.988 68.7862C284.488 68.0696 285.108 67.5431 285.848 67.2068C286.6 66.8718 287.407 66.7499 288.27 66.8409C289.023 66.9205 289.663 67.1359 290.189 67.4874C290.726 67.8401 291.14 68.2566 291.429 68.737L291.588 67.3509L294.159 67.6222L293.045 77.3421L290.475 77.0708L290.637 75.6497C290.257 76.0712 289.758 76.4033 289.139 76.6458C288.535 76.8779 287.855 76.9542 287.102 76.8747C286.251 76.7849 285.497 76.4923 284.841 75.9968C284.196 75.5026 283.711 74.8536 283.385 74.0497C283.072 73.2354 282.973 72.3311 283.087 71.3369ZM291.031 72.2109C291.1 71.6144 291.036 71.0927 290.841 70.646C290.648 70.1876 290.357 69.8254 289.97 69.5596C289.583 69.282 289.153 69.1183 288.679 69.0682C288.205 69.0182 287.755 69.0831 287.328 69.2631C286.902 69.443 286.536 69.7358 286.231 70.1417C285.94 70.5371 285.761 71.0272 285.694 71.6121C285.627 72.1969 285.689 72.7244 285.881 73.1945C286.087 73.6542 286.377 74.0222 286.751 74.2985C287.138 74.576 287.562 74.7391 288.024 74.7879C288.498 74.8379 288.954 74.7736 289.393 74.595C289.833 74.4047 290.198 74.1118 290.49 73.7164C290.782 73.3092 290.963 72.8074 291.031 72.2109ZM301.537 68.2411C302.291 68.3206 302.936 68.5368 303.474 68.8895C304.013 69.2305 304.421 69.6464 304.697 70.1372L304.855 68.7511L307.426 69.0224L306.304 78.8125C306.201 79.7131 305.921 80.4945 305.464 81.1565C305.005 81.8302 304.376 82.332 303.575 82.6619C302.774 83.0034 301.838 83.1178 300.768 83.0049C299.334 82.8535 298.192 82.4074 297.342 81.6667C296.504 80.9271 296.088 79.9954 296.094 78.8714L298.628 79.1388C298.711 79.5974 298.956 79.9784 299.364 80.2819C299.783 80.5984 300.309 80.79 300.941 80.8567C301.682 80.9349 302.308 80.7821 302.82 80.398C303.33 80.0257 303.635 79.4067 303.734 78.5412L303.907 77.0323C303.526 77.4539 303.027 77.7859 302.409 78.0284C301.803 78.2723 301.129 78.3551 300.387 78.2768C299.537 78.187 298.783 77.8944 298.126 77.3989C297.47 76.9035 296.978 76.2538 296.652 75.4499C296.339 74.6356 296.24 73.7313 296.354 72.7371C296.466 71.7546 296.767 70.9043 297.255 70.1864C297.755 69.4697 298.375 68.9433 299.115 68.607C299.867 68.272 300.674 68.15 301.537 68.2411ZM304.299 73.6111C304.367 73.0145 304.304 72.4929 304.109 72.0462C303.915 71.5877 303.625 71.2256 303.237 70.9598C302.85 70.6822 302.42 70.5184 301.946 70.4684C301.472 70.4184 301.022 70.4833 300.595 70.6632C300.169 70.8431 299.803 71.136 299.498 71.5418C299.207 71.9373 299.028 72.4274 298.961 73.0122C298.894 73.5971 298.956 74.1245 299.149 74.5947C299.354 75.0544 299.644 75.4224 300.019 75.6986C300.405 75.9762 300.829 76.1393 301.291 76.1881C301.765 76.2381 302.221 76.1738 302.66 75.9952C303.1 75.8048 303.466 75.512 303.757 75.1165C304.05 74.7094 304.23 74.2076 304.299 73.6111ZM319.687 75.022C319.646 75.3729 319.586 75.6861 319.505 75.9617L312.122 75.1825C312.102 75.8907 312.294 76.4674 312.698 76.9125C313.102 77.3576 313.633 77.6148 314.289 77.6841C315.237 77.7842 315.956 77.4635 316.447 76.7222L319.2 77.0127C318.801 77.9176 318.154 78.6306 317.258 79.1516C316.363 79.6609 315.314 79.8521 314.111 79.7251C313.138 79.6225 312.287 79.3254 311.556 78.834C310.838 78.3321 310.304 77.6779 309.954 76.8714C309.615 76.0663 309.503 75.1666 309.617 74.1724C309.732 73.1665 310.046 72.3058 310.559 71.5904C311.071 70.875 311.734 70.3531 312.546 70.0245C313.359 69.6959 314.264 69.5842 315.26 69.6894C316.22 69.7907 317.054 70.08 317.762 70.5572C318.483 71.0357 319.007 71.6652 319.336 72.4457C319.678 73.2158 319.795 74.0745 319.687 75.022ZM317.123 74.0412C317.184 73.4083 317.004 72.8803 316.585 72.4573C316.168 72.0225 315.625 71.7699 314.956 71.6994C314.324 71.6327 313.768 71.7634 313.288 72.0915C312.821 72.4092 312.501 72.8904 312.329 73.5352L317.123 74.0412Z" fill="white"/>
<path d="M387.202 81.1099C387.904 81.3142 388.454 81.7215 388.852 82.3317C389.249 82.9419 389.407 83.6096 389.324 84.3347C389.248 84.9898 389.012 85.5508 388.614 86.0178C388.23 86.4744 387.705 86.8098 387.041 87.0238C386.377 87.2378 385.613 87.2993 384.75 87.2082L379.263 86.6291L380.666 74.3827L385.916 74.9368C386.779 75.0279 387.505 75.2407 388.094 75.5751C388.696 75.9108 389.127 76.3351 389.388 76.848C389.661 77.3622 389.763 77.9235 389.693 78.5317C389.611 79.2452 389.342 79.8205 388.886 80.2578C388.443 80.6963 387.881 80.9803 387.202 81.1099ZM382.639 79.705L384.973 79.9513C385.581 80.0154 386.063 79.9362 386.421 79.7135C386.78 79.4791 386.988 79.1162 387.044 78.625C387.1 78.1337 386.98 77.7363 386.682 77.4326C386.385 77.129 385.932 76.9451 385.325 76.8809L382.991 76.6347L382.639 79.705ZM384.615 85.1696C385.235 85.235 385.731 85.1453 386.103 84.9005C386.488 84.657 386.71 84.2779 386.769 83.7633C386.829 83.2369 386.694 82.8083 386.363 82.4774C386.033 82.1348 385.558 81.9308 384.938 81.8654L382.422 81.5999L382.044 84.8983L384.615 85.1696ZM391.794 82.9973C391.906 82.0148 392.207 81.1646 392.695 80.4466C393.195 79.7299 393.815 79.2035 394.555 78.8672C395.307 78.5322 396.114 78.4103 396.977 78.5013C397.731 78.5809 398.37 78.7963 398.896 79.1477C399.434 79.5004 399.847 79.917 400.136 80.3974L400.295 79.0113L402.866 79.2826L401.752 89.0025L399.182 88.7312L399.345 87.3101C398.964 87.7316 398.465 88.0637 397.847 88.3062C397.242 88.5383 396.563 88.6146 395.809 88.5351C394.958 88.4453 394.205 88.1527 393.548 87.6572C392.903 87.163 392.418 86.514 392.092 85.7101C391.779 84.8958 391.68 83.9915 391.794 82.9973ZM399.739 83.8713C399.807 83.2747 399.744 82.7531 399.549 82.3064C399.355 81.848 399.065 81.4858 398.677 81.22C398.29 80.9424 397.86 80.7786 397.386 80.7286C396.912 80.6786 396.462 80.7435 396.035 80.9234C395.609 81.1034 395.243 81.3962 394.938 81.8021C394.647 82.1975 394.468 82.6876 394.401 83.2724C394.334 83.8573 394.396 84.3848 394.589 84.8549C394.794 85.3146 395.084 85.6826 395.458 85.9588C395.845 86.2364 396.269 86.3995 396.731 86.4483C397.205 86.4983 397.661 86.434 398.1 86.2554C398.54 86.065 398.906 85.7722 399.197 85.3768C399.49 84.9696 399.67 84.4678 399.739 83.8713ZM405.057 84.4326C405.172 83.4267 405.486 82.5719 405.997 81.8682C406.509 81.1528 407.166 80.6302 407.966 80.3003C408.768 79.9588 409.655 79.8393 410.627 79.9419C411.879 80.074 412.877 80.4872 413.622 81.1813C414.38 81.8651 414.837 82.7656 414.992 83.8829L412.239 83.5924C412.141 83.1559 411.929 82.8021 411.604 82.531C411.292 82.2494 410.88 82.0817 410.37 82.0278C409.641 81.9509 409.034 82.1473 408.549 82.617C408.066 83.0751 407.771 83.772 407.664 84.7077C407.558 85.6317 407.689 86.3735 408.055 86.9331C408.423 87.4809 408.971 87.7933 409.701 87.8703C410.734 87.9793 411.459 87.606 411.877 86.7504L414.63 87.041C414.23 88.0642 413.581 88.8421 412.683 89.3748C411.786 89.9075 410.717 90.1084 409.478 89.9776C408.505 89.875 407.666 89.5792 406.959 89.0903C406.254 88.5897 405.731 87.9427 405.392 87.1492C405.053 86.344 404.942 85.4385 405.057 84.4326ZM423.015 91.2465L420.062 86.7442L419.588 90.8848L417.035 90.6154L418.523 77.6322L421.075 77.9015L420.229 85.2879L424.092 81.5227L427.41 81.8729L422.403 86.2809L426.333 91.5967L423.015 91.2465ZM438.563 87.7556C438.523 88.1065 438.463 88.4197 438.382 88.6953L430.998 87.9161C430.979 88.6243 431.171 89.201 431.575 89.6461C431.979 90.0913 432.509 90.3485 433.166 90.4177C434.114 90.5178 434.833 90.1971 435.324 89.4558L438.077 89.7463C437.678 90.6513 437.031 91.3642 436.134 91.8852C435.24 92.3945 434.191 92.5857 432.987 92.4587C432.015 92.3561 431.163 92.0591 430.432 91.5676C429.715 91.0657 429.181 90.4115 428.83 89.6051C428.492 88.7999 428.38 87.9002 428.494 86.906C428.609 85.9001 428.923 85.0394 429.435 84.3241C429.948 83.6087 430.611 83.0867 431.423 82.7581C432.236 82.4295 433.14 82.3178 434.137 82.423C435.097 82.5244 435.931 82.8136 436.639 83.2908C437.359 83.7693 437.884 84.3988 438.213 85.1793C438.555 85.9494 438.672 86.8082 438.563 87.7556ZM436 86.7748C436.06 86.1419 435.881 85.6139 435.462 85.1909C435.044 84.7562 434.501 84.5035 433.833 84.433C433.201 84.3663 432.645 84.497 432.164 84.8251C431.697 85.1428 431.378 85.624 431.205 86.2688L436 86.7748ZM447.483 83.8493C448.687 83.9763 449.617 84.4474 450.274 85.2625C450.932 86.0659 451.186 87.1226 451.036 88.4327L450.383 94.1348L447.831 93.8654L448.446 88.4967C448.534 87.7247 448.401 87.1128 448.047 86.6611C447.694 86.1977 447.171 85.9295 446.479 85.8563C445.774 85.782 445.19 85.9335 444.729 86.311C444.281 86.678 444.013 87.2475 443.924 88.0195L443.309 93.3883L440.757 93.1189L441.87 83.399L444.423 83.6684L444.284 84.879C444.673 84.4938 445.142 84.2118 445.691 84.033C446.254 83.8439 446.851 83.7826 447.483 83.8493ZM453.626 89.5228C453.739 88.5403 454.039 87.6901 454.527 86.9721C455.028 86.2554 455.654 85.7296 456.405 85.3946C457.157 85.0596 457.965 84.9377 458.828 85.0288C459.484 85.098 460.094 85.3044 460.657 85.648C461.222 85.9799 461.654 86.3925 461.955 86.8859L462.483 82.2716L465.072 82.5448L463.585 95.528L460.996 95.2548L461.161 93.8161C460.79 94.2623 460.302 94.6015 459.697 94.8336C459.092 95.0658 458.413 95.1421 457.66 95.0625C456.809 94.9728 456.055 94.6801 455.398 94.1846C454.742 93.6892 454.25 93.0395 453.924 92.2356C453.612 91.4213 453.512 90.517 453.626 89.5228ZM461.571 90.3968C461.639 89.8003 461.576 89.2786 461.381 88.8319C461.188 88.3735 460.897 88.0113 460.509 87.7455C460.123 87.4679 459.692 87.3042 459.218 87.2541C458.744 87.2041 458.294 87.269 457.868 87.449C457.441 87.6289 457.075 87.9217 456.771 88.3276C456.479 88.723 456.3 89.2131 456.233 89.798C456.166 90.3828 456.229 90.9103 456.421 91.3804C456.627 91.8401 456.916 92.2081 457.291 92.4843C457.677 92.7619 458.101 92.925 458.563 92.9738C459.037 93.0238 459.494 92.9595 459.932 92.7809C460.372 92.5906 460.738 92.2977 461.029 91.9023C461.322 91.4951 461.502 90.9933 461.571 90.3968Z" fill="white"/>
<g clip-path="url(#clip0_462_372)">
<path d="M108.899 48.2979C110.666 48.3915 112.174 47.0353 112.267 45.2685C112.361 43.5018 111.005 41.9937 109.238 41.9C107.471 41.8064 105.963 43.1627 105.869 44.9294C105.776 46.6961 107.132 48.2042 108.899 48.2979Z" fill="white"/>
<path d="M127.453 43.1867L114.821 54.5467L126.181 67.1786L131.939 67.4838L120.579 54.852L133.211 43.4919L127.453 43.1867Z" fill="white"/>
</g>
<g filter="url(#filter0_d_462_372)">
<rect width="479.469" height="47.3187" transform="matrix(0.838634 -0.544696 0.576221 0.817294 -82.3086 190.164)" fill="#0F1A34"/>
</g>
<path d="M14.2056 147.268C15.3159 146.554 16.4376 146.139 17.5707 146.024C18.7139 145.902 19.7873 146.089 20.7909 146.584C21.7978 147.063 22.6617 147.819 23.3828 148.852C24.1039 149.885 24.5035 150.94 24.5817 152.016C24.6632 153.076 24.4276 154.09 23.875 155.058C23.3325 156.02 22.5061 156.857 21.3957 157.571L17.7013 159.946L10.5112 149.643L14.2056 147.268ZM20.0942 155.863C21.2045 155.149 21.8565 154.303 22.0501 153.323C22.2437 152.343 21.9662 151.317 21.2177 150.244C20.4691 149.172 19.5826 148.53 18.558 148.319C17.5266 148.098 16.4557 148.345 15.3454 149.058L13.8464 150.022L18.5952 156.827L20.0942 155.863ZM25.8923 148.714C25.3154 147.888 24.9704 147.048 24.8571 146.194C24.7539 145.333 24.8698 144.546 25.2048 143.832C25.5499 143.111 26.0808 142.52 26.7974 142.059C27.4233 141.657 28.0542 141.43 28.6902 141.377C29.3363 141.318 29.9311 141.385 30.4747 141.577L29.6609 140.411L31.7958 139.039L37.5026 147.216L35.3678 148.589L34.5334 147.393C34.5287 147.952 34.3733 148.515 34.0674 149.082C33.7646 149.634 33.3004 150.11 32.6745 150.513C31.968 150.967 31.1983 151.205 30.3657 151.227C29.5431 151.243 28.737 151.041 27.9474 150.622C27.1611 150.187 26.476 149.551 25.8923 148.714ZM32.5144 144.5C32.1641 143.998 31.7644 143.635 31.3153 143.41C30.8594 143.176 30.3945 143.076 29.9209 143.109C29.4403 143.133 29.0032 143.272 28.6096 143.525C28.2159 143.778 27.9177 144.105 27.7151 144.506C27.5125 144.907 27.4323 145.358 27.4744 145.858C27.5197 146.342 27.7141 146.83 28.0575 147.322C28.4008 147.814 28.8039 148.182 29.2668 148.427C29.7328 148.654 30.2011 148.76 30.6715 148.742C31.1521 148.719 31.5841 148.583 31.9677 148.337C32.3614 148.084 32.6646 147.753 32.8773 147.346C33.0831 146.928 33.1634 146.478 33.118 145.993C33.0658 145.5 32.8646 145.002 32.5144 144.5ZM43.6326 143.468C42.9462 143.909 42.248 144.187 41.5381 144.301C40.8214 144.405 40.1573 144.355 39.5458 144.149C38.9445 143.937 38.4536 143.59 38.073 143.107L40.2079 141.735C40.4681 142.024 40.8065 142.184 41.2233 142.215C41.6501 142.24 42.0704 142.12 42.4843 141.854C42.8881 141.594 43.146 141.314 43.2582 141.014C43.3805 140.707 43.3558 140.431 43.1841 140.185C42.9987 139.919 42.72 139.813 42.3481 139.867C41.9794 139.904 41.4373 140.039 40.7218 140.271C39.993 140.526 39.3718 140.704 38.8581 140.806C38.3546 140.902 37.8431 140.882 37.3238 140.745C36.8145 140.602 36.3676 140.255 35.983 139.704C35.6671 139.251 35.5099 138.753 35.5114 138.211C35.523 137.662 35.7005 137.12 36.0441 136.585C36.3977 136.044 36.9126 135.557 37.5889 135.122C38.5882 134.479 39.5573 134.213 40.4962 134.322C41.4283 134.421 42.213 134.865 42.8505 135.652L40.8216 136.957C40.5647 136.651 40.2448 136.486 39.862 136.462C39.4824 136.421 39.0856 136.533 38.6718 136.799C38.2882 137.046 38.0385 137.306 37.9227 137.58C37.8169 137.848 37.8499 138.104 38.0216 138.35C38.2139 138.626 38.5029 138.747 38.8885 138.713C39.2673 138.669 39.8059 138.529 40.5045 138.294C41.2131 138.052 41.8192 137.883 42.3228 137.788C42.8263 137.692 43.3362 137.721 43.8523 137.874C44.3716 138.01 44.8252 138.346 45.213 138.881C45.5426 139.353 45.7017 139.864 45.6901 140.413C45.6886 140.955 45.5111 141.497 45.1575 142.038C44.8071 142.563 44.2988 143.039 43.6326 143.468ZM48.2724 128.275C48.9083 127.866 49.5697 127.64 50.2566 127.598C50.9367 127.546 51.5984 127.698 52.2417 128.054C52.8883 128.394 53.4692 128.932 53.9842 129.671L57.3321 134.468L55.2123 135.831L52.0602 131.314C51.607 130.664 51.0936 130.274 50.5201 130.144C49.9398 130.004 49.362 130.119 48.7866 130.489C48.2012 130.865 47.8605 131.341 47.7645 131.916C47.6717 132.474 47.852 133.078 48.3053 133.728L51.4574 138.245L49.3377 139.607L41.7148 128.684L43.8346 127.322L46.4614 131.086C46.4867 130.556 46.6578 130.047 46.9746 129.558C47.2847 129.059 47.7172 128.632 48.2724 128.275ZM57.3522 124.341C57.35 123.772 57.5003 123.212 57.8031 122.661C58.1159 122.103 58.5802 121.627 59.1959 121.231C59.9126 120.77 60.6788 120.527 61.4945 120.501C62.3203 120.469 63.1229 120.666 63.9024 121.092C64.6851 121.501 65.3683 122.124 65.9521 122.96C66.5358 123.797 66.8827 124.65 66.9927 125.52C67.106 126.374 66.9935 127.166 66.6553 127.897C66.3272 128.621 65.8048 129.213 65.0881 129.674C64.4623 130.076 63.8298 130.312 63.1905 130.381C62.5545 130.433 61.9613 130.358 61.4108 130.156L62.2246 131.322L60.1049 132.685L52.4821 121.762L54.6018 120.399L57.3522 124.341ZM63.7869 124.352C63.4435 123.86 63.0423 123.505 62.5831 123.287C62.1271 123.053 61.6623 122.952 61.1886 122.986C60.725 123.013 60.2964 123.153 59.9027 123.406C59.5191 123.653 59.2244 123.985 59.0186 124.403C58.816 124.804 58.7357 125.254 58.7778 125.755C58.83 126.249 59.0278 126.742 59.3712 127.234C59.7146 127.726 60.1143 128.089 60.5702 128.323C61.0363 128.551 61.5046 128.656 61.975 128.639C62.4487 128.605 62.8773 128.465 63.2609 128.219C63.6545 127.965 63.9492 127.633 64.145 127.222C64.3508 126.805 64.4277 126.349 64.3754 125.855C64.3333 125.355 64.1371 124.854 63.7869 124.352ZM74.9409 123.34C74.1333 123.859 73.2864 124.154 72.4 124.225C71.5068 124.286 70.6502 124.117 69.8304 123.717C69.0206 123.311 68.3239 122.69 67.7401 121.853C67.1564 121.017 66.8281 120.159 66.7552 119.279C66.6924 118.393 66.8688 117.567 67.2846 116.8C67.6935 116.024 68.3017 115.377 69.1092 114.858C69.9167 114.338 70.7721 114.045 71.6755 113.977C72.5719 113.9 73.4301 114.061 74.25 114.461C75.0799 114.854 75.7868 115.468 76.3705 116.305C76.9542 117.141 77.2724 118.006 77.3252 118.899C77.388 119.785 77.2099 120.619 76.7909 121.402C76.3752 122.168 75.7585 122.814 74.9409 123.34ZM73.6841 121.539C74.0677 121.292 74.3642 120.973 74.5737 120.582C74.7864 120.174 74.8667 119.724 74.8145 119.23C74.7623 118.736 74.5542 118.228 74.1902 117.707C73.6477 116.929 73.0202 116.47 72.3078 116.329C71.5987 116.172 70.9413 116.288 70.3356 116.678C69.73 117.067 69.3679 117.606 69.2494 118.296C69.134 118.969 69.3476 119.694 69.8902 120.471C70.4327 121.249 71.0484 121.722 71.7374 121.892C72.4296 122.046 73.0785 121.928 73.6841 121.539ZM78.1168 115.14C77.5399 114.313 77.1948 113.473 77.0815 112.619C76.9784 111.759 77.0943 110.971 77.4293 110.257C77.7744 109.536 78.3052 108.945 79.0219 108.485C79.6477 108.082 80.2786 107.855 80.9147 107.802C81.5608 107.743 82.1556 107.81 82.6992 108.002L81.8854 106.836L84.0203 105.464L89.7271 113.641L87.5922 115.014L86.7578 113.818C86.7531 114.377 86.5978 114.94 86.2918 115.508C85.9891 116.059 85.5248 116.535 84.899 116.938C84.1924 117.392 83.4228 117.63 82.5901 117.652C81.7675 117.668 80.9615 117.466 80.1719 117.047C79.3855 116.612 78.7005 115.976 78.1168 115.14ZM84.7388 110.925C84.3886 110.423 83.9889 110.06 83.5398 109.835C83.0838 109.601 82.619 109.501 82.1453 109.534C81.6648 109.558 81.2277 109.697 80.834 109.95C80.4404 110.203 80.1422 110.53 79.9396 110.931C79.737 111.332 79.6567 111.783 79.6988 112.283C79.7442 112.767 79.9385 113.256 80.2819 113.748C80.6253 114.24 81.0284 114.608 81.4912 114.852C81.9573 115.08 82.4256 115.185 82.896 115.168C83.3766 115.144 83.8086 115.009 84.1922 114.762C84.5858 114.509 84.889 114.179 85.1017 113.771C85.3076 113.353 85.3878 112.903 85.3425 112.419C85.2903 111.925 85.0891 111.427 84.7388 110.925ZM89.8533 103.553C89.8236 102.944 89.94 102.378 90.2023 101.853C90.4748 101.321 90.8936 100.874 91.4589 100.51L92.9732 102.68L92.413 103.04C91.7468 103.469 91.3485 103.946 91.2182 104.471C91.098 104.991 91.3023 105.629 91.8311 106.387L94.6742 110.461L92.5544 111.824L86.8476 103.646L88.9674 102.283L89.8533 103.553ZM96.0138 103.634C95.437 102.807 95.0919 101.967 94.9786 101.113C94.8754 100.253 94.9964 99.4621 95.3415 98.7413C95.6866 98.0205 96.2175 97.4298 96.9341 96.969C97.4792 96.6186 98.0814 96.4025 98.7409 96.3207C99.3934 96.229 100 96.281 100.561 96.4766L97.8513 92.5945L100.001 91.2122L107.624 102.135L105.474 103.518L104.629 102.307C104.649 102.879 104.507 103.441 104.204 103.992C103.901 104.543 103.437 105.02 102.811 105.422C102.105 105.876 101.335 106.114 100.502 106.137C99.6697 106.159 98.8585 105.96 98.069 105.541C97.2826 105.106 96.5976 104.47 96.0138 103.634ZM102.636 99.4191C102.286 98.9172 101.886 98.554 101.437 98.3295C100.981 98.0952 100.516 97.9949 100.042 98.0286C99.5619 98.0524 99.1248 98.1908 98.7311 98.4439C98.3374 98.697 98.0393 99.0241 97.8367 99.4252C97.634 99.8264 97.5538 100.277 97.5959 100.777C97.6413 101.262 97.8356 101.75 98.179 102.242C98.5224 102.734 98.9255 103.102 99.3883 103.346C99.8544 103.574 100.323 103.679 100.793 103.662C101.274 103.638 101.706 103.503 102.089 103.256C102.483 103.003 102.786 102.673 102.999 102.265C103.205 101.848 103.285 101.397 103.24 100.913C103.187 100.419 102.986 99.9209 102.636 99.4191Z" fill="white"/>
<path d="M181.175 49.8169L176.966 52.5229L177.639 54.9339L175.414 56.3648L172.013 43.6036L174.481 42.017L185.482 49.8917L183.241 51.3323L181.175 49.8169ZM179.446 48.5335L174.909 45.2065L176.387 50.4998L179.446 48.5335ZM184.241 44.7238C183.664 43.8972 183.319 43.057 183.206 42.2032C183.102 41.3429 183.223 40.5524 183.568 39.8316C183.914 39.1108 184.444 38.52 185.161 38.0593C185.706 37.7088 186.308 37.4927 186.968 37.4109C187.62 37.3193 188.227 37.3713 188.787 37.5669L186.078 33.6847L188.228 32.3025L195.851 43.2256L193.701 44.6079L192.856 43.3975C192.876 43.9696 192.734 44.5312 192.431 45.0823C192.128 45.6333 191.664 46.11 191.038 46.5123C190.332 46.9666 189.562 47.2047 188.729 47.2269C187.897 47.249 187.085 47.0505 186.296 46.6315C185.51 46.1962 184.825 45.5603 184.241 44.7238ZM190.863 40.5093C190.513 40.0074 190.113 39.6443 189.664 39.4198C189.208 39.1855 188.743 39.0852 188.269 39.1188C187.789 39.1426 187.352 39.2811 186.958 39.5342C186.564 39.7873 186.266 40.1144 186.064 40.5155C185.861 40.9166 185.781 41.3674 185.823 41.8677C185.868 42.3518 186.063 42.8398 186.406 43.3319C186.749 43.8239 187.152 44.192 187.615 44.4362C188.081 44.664 188.55 44.7692 189.02 44.7519C189.501 44.7281 189.933 44.5929 190.316 44.3463C190.71 44.0932 191.013 43.7628 191.226 43.3552C191.432 42.9378 191.512 42.487 191.467 42.003C191.414 41.5091 191.213 41.0112 190.863 40.5093ZM203.306 26.4152C204.336 25.7533 205.38 25.5312 206.438 25.7488C207.5 25.9501 208.415 26.6018 209.185 27.704L212.532 32.5013L210.413 33.8641L207.261 29.3472C206.814 28.7076 206.308 28.3275 205.741 28.2071C205.168 28.0768 204.593 28.1966 204.018 28.5665C203.443 28.9364 203.103 29.4039 203.001 29.9689C202.901 30.5177 203.074 31.1119 203.521 31.7515L206.673 36.2684L204.553 37.6311L201.401 33.1143C200.955 32.4746 200.448 32.0946 199.882 31.9742C199.308 31.8439 198.734 31.9637 198.158 32.3336C197.573 32.71 197.229 33.1807 197.126 33.7457C197.026 34.2945 197.2 34.8887 197.646 35.5283L200.798 40.0452L198.678 41.4079L192.972 33.2303L195.091 31.8676L195.782 32.8566C195.814 32.3369 195.973 31.8424 196.26 31.3731C196.556 30.8972 196.962 30.4938 197.477 30.1628C198.133 29.741 198.815 29.5024 199.522 29.447C200.222 29.3817 200.888 29.5092 201.521 29.8294C201.464 29.1818 201.594 28.5499 201.909 27.9335C202.235 27.3107 202.701 26.8046 203.306 26.4152ZM209.989 20.8785C209.616 21.1186 209.224 21.2066 208.814 21.1425C208.407 21.0621 208.083 20.8496 207.842 20.5052C207.602 20.1608 207.524 19.7975 207.608 19.4154C207.696 19.017 207.926 18.6978 208.3 18.4577C208.673 18.2176 209.064 18.1377 209.471 18.2182C209.881 18.2823 210.206 18.4865 210.447 18.8309C210.687 19.1754 210.764 19.5468 210.676 19.9452C210.592 20.3273 210.363 20.6384 209.989 20.8785ZM211.714 21.1811L217.421 29.3586L215.301 30.7214L209.594 22.5438L211.714 21.1811ZM219.131 16.2415C220.13 15.5991 221.154 15.3899 222.203 15.614C223.244 15.8283 224.149 16.4865 224.919 17.5886L228.266 22.386L226.147 23.7487L222.995 19.2319C222.541 18.5824 222.028 18.1925 221.455 18.0622C220.874 17.9221 220.296 18.037 219.721 18.4069C219.136 18.7833 218.795 19.2589 218.699 19.8338C218.606 20.3924 218.786 20.9964 219.24 21.6459L222.392 26.1628L220.272 27.5255L214.565 19.3479L216.685 17.9852L217.396 19.0037C217.431 18.4677 217.597 17.9618 217.894 17.4859C218.194 16.9938 218.606 16.5789 219.131 16.2415ZM238.146 5.72777C238.53 6.27885 238.755 6.88309 238.819 7.54049C238.893 8.19141 238.745 8.84942 238.376 9.51454C238.016 10.1732 237.403 10.7815 236.535 11.3396L234.763 12.4785L237.524 16.4344L235.404 17.7972L228.214 7.49402L232.105 4.99237C232.923 4.46673 233.715 4.15674 234.483 4.06238C235.251 3.96803 235.944 4.0711 236.563 4.37159C237.192 4.66559 237.72 5.11765 238.146 5.72777ZM235.28 9.73001C235.865 9.35363 236.21 8.94666 236.314 8.5091C236.411 8.0617 236.295 7.60182 235.965 7.12947C235.265 6.12572 234.339 5.99374 233.189 6.73353L231.508 7.81401L233.599 10.8105L235.28 9.73001ZM241.954 7.62043C241.377 6.79381 241.032 5.95361 240.919 5.09982C240.815 4.23953 240.931 3.45224 241.266 2.73792C241.611 2.01711 242.142 1.42634 242.859 0.965593C243.485 0.563253 244.116 0.335835 244.752 0.283341C245.398 0.224358 245.993 0.290989 246.536 0.483232L245.723 -0.682887L247.857 -2.05539L253.564 6.12221L251.429 7.49471L250.595 6.29907C250.59 6.85806 250.435 7.42124 250.129 7.98858C249.826 8.5396 249.362 9.01628 248.736 9.41862C248.03 9.87287 247.26 10.1111 246.427 10.1332C245.605 10.1488 244.799 9.94712 244.009 9.52812C243.223 9.09278 242.538 8.45688 241.954 7.62043ZM248.576 3.40591C248.226 2.90404 247.826 2.54086 247.377 2.31638C246.921 2.08207 246.456 1.98174 245.982 2.01541C245.502 2.03923 245.065 2.17768 244.671 2.43077C244.277 2.68385 243.979 3.01096 243.777 3.41208C243.574 3.8132 243.494 4.26395 243.536 4.76433C243.581 5.24838 243.776 5.73643 244.119 6.22846C244.462 6.72049 244.865 7.08859 245.328 7.33275C245.794 7.56058 246.263 7.66582 246.733 7.64849C247.214 7.62466 247.646 7.48945 248.029 7.24286C248.423 6.98977 248.726 6.65942 248.939 6.25181C249.145 5.83436 249.225 5.38361 249.18 4.89956C249.127 4.40567 248.926 3.90778 248.576 3.40591ZM255.251 -6.9795C256.25 -7.62195 257.274 -7.83111 258.322 -7.607C259.364 -7.39273 260.269 -6.73452 261.038 -5.63237L264.386 -0.835041L262.266 0.527724L259.114 -3.98914C258.661 -4.63862 258.147 -5.0285 257.574 -5.15878C256.994 -5.29889 256.416 -5.184 255.84 -4.81411C255.255 -4.43773 254.914 -3.96209 254.818 -3.38718C254.726 -2.82861 254.906 -2.22458 255.359 -1.5751L258.511 2.94177L256.392 4.30453L250.685 -3.87306L252.804 -5.23583L253.515 -4.21732C253.551 -4.75328 253.717 -5.2592 254.013 -5.73505C254.313 -6.22724 254.726 -6.64205 255.251 -6.9795ZM271.979 -11.8966C272.185 -11.6014 272.351 -11.3227 272.475 -11.0606L266.343 -7.11831C266.805 -6.56031 267.34 -6.23408 267.947 -6.1396C268.554 -6.04512 269.13 -6.1731 269.675 -6.52352C270.463 -7.02969 270.793 -7.71952 270.666 -8.59299L272.952 -10.0628C273.259 -9.11983 273.248 -8.17184 272.919 -7.21885C272.583 -6.2757 271.915 -5.4829 270.916 -4.84045C270.108 -4.3213 269.261 -4.02628 268.375 -3.95538C267.492 -3.90082 266.645 -4.07655 265.835 -4.48258C265.036 -4.89509 264.344 -5.51958 263.76 -6.35603C263.17 -7.20233 262.828 -8.05887 262.735 -8.92564C262.642 -9.79241 262.793 -10.6024 263.188 -11.3557C263.584 -12.1089 264.196 -12.7516 265.023 -13.2837C265.821 -13.7964 266.649 -14.0866 267.508 -14.1544C268.378 -14.2286 269.2 -14.0661 269.976 -13.6668C270.755 -13.2838 271.423 -12.6937 271.979 -11.8966ZM269.372 -11.0756C268.991 -11.6005 268.499 -11.8971 267.895 -11.9654C267.285 -12.0436 266.703 -11.9042 266.147 -11.5473C265.623 -11.2098 265.288 -10.7669 265.145 -10.2183C265.004 -9.68616 265.086 -9.11857 265.39 -8.51557L269.372 -11.0756ZM271.758 -21.398L279.38 -10.4749L277.261 -9.11209L269.638 -20.0352L271.758 -21.398Z" fill="white"/>
<g clip-path="url(#clip1_462_372)">
<path d="M128.694 74.2393C130.106 73.1732 130.387 71.1644 129.321 69.7525C128.255 68.3406 126.246 68.0602 124.834 69.1263C123.422 70.1924 123.142 72.2012 124.208 73.6131C125.274 75.0251 127.283 75.3054 128.694 74.2393Z" fill="white"/>
<path d="M139.599 58.3785L137.25 75.2041L154.076 77.5523L158.678 74.0777L141.852 71.7295L144.2 54.9039L139.599 58.3785Z" fill="white"/>
</g>
</g>
<g clip-path="url(#clip2_462_372)">
<path d="M343.063 72.4341C344.794 72.5258 346.272 71.1971 346.364 69.4662C346.455 67.7354 345.127 66.2579 343.396 66.1661C341.665 66.0744 340.187 67.4031 340.096 69.134C340.004 70.8648 341.333 72.3423 343.063 72.4341Z" fill="white"/>
<path d="M361.245 67.4257L348.869 78.5552L359.999 90.9306L365.64 91.2296L354.51 78.8542L366.886 67.7248L361.245 67.4257Z" fill="white"/>
</g>
<defs>
<filter id="filter0_d_462_372" x="-147.309" y="-112" width="519.363" height="389.838" filterUnits="userSpaceOnUse" color-interpolation-filters="sRGB">
<feFlood flood-opacity="0" result="BackgroundImageFix"/>
<feColorMatrix in="SourceAlpha" type="matrix" values="0 0 0 0 0 0 0 0 0 0 0 0 0 0 0 0 0 0 127 0" result="hardAlpha"/>
<feOffset dx="-20" dy="4"/>
<feGaussianBlur stdDeviation="22.5"/>
<feComposite in2="hardAlpha" operator="out"/>
<feColorMatrix type="matrix" values="0 0 0 0 1 0 0 0 0 1 0 0 0 0 1 0 0 0 0.1 0"/>
<feBlend mode="normal" in2="BackgroundImageFix" result="effect1_dropShadow_462_372"/>
<feBlend mode="normal" in="SourceGraphic" in2="effect1_dropShadow_462_372" result="shape"/>
</filter>
<clipPath id="clip0_462_372">
<rect width="26.7166" height="24.8347" fill="white" transform="matrix(1.01775 0.0539508 -0.0518938 0.978946 106.039 41.7305)"/>
</clipPath>
<clipPath id="clip1_462_372">
<rect width="27.229" height="24.3459" fill="white" transform="translate(122.277 71.0566) rotate(-37.055)"/>
</clipPath>
<clipPath id="clip2_462_372">
<rect width="26.6762" height="23.8517" fill="white" transform="translate(340.262 66) rotate(3.0344)"/>
</clipPath>
</defs>
</svg>
